<svg xmlns="http://www.w3.org/2000/svg" viewBox="0 0 1449.1 331.8"><defs><style>.cls-1{isolation:isolate;}.cls-2,.cls-3{fill:#fff;}.cls-2{opacity:0.45;mix-blend-mode:multiply;}</style></defs><title>salupro-white</title><g class="cls-1"><g id="Layer_1" data-name="Layer 1"><path class="cls-2" d="M258.45,206.55V171.71a13.6,13.6,0,0,0-13.6-13.6h-15.3a13.6,13.6,0,0,0-13.6,13.6v34.84H181.12a13.6,13.6,0,0,0-13.6,13.6v15.3a13.6,13.6,0,0,0,13.6,13.6H216V271.7c1.09-.26,2.19-.53,3.29-.84a92.93,92.93,0,0,0,37.14-20.71,90.55,90.55,0,0,0,25-39.88c.38-1.23.72-2.47,1-3.72Z" transform="translate(-27.61 -19.12)"/><path class="cls-3" d="M293.52,158A106.4,106.4,0,0,0,283,130.88a101.59,101.59,0,0,0-8.41-12.34c-3.29-4.46-6.05-6.9-9.75-10.88a110.7,110.7,0,0,0-24.29-17,108.44,108.44,0,0,0-28.16-9.29A110,110,0,0,0,183,80.48a107.48,107.48,0,0,0-27.92,7.27c-8.83,3.89-16.84,8.18-24.44,14.46a105.74,105.74,0,0,0-9.71,8.63l-.55.52-.27.26-.66.69-1.1,1.28-2.19,2.55c-1.42,1.73-3,3.33-4.24,5.14a105.57,105.57,0,0,0-18.3,88.08A104.69,104.69,0,0,0,106.2,240l1.42,2.25L33.54,316.33A20.27,20.27,0,0,0,62.2,345l80.85-80.85a15,15,0,0,0,2.26-1.94c.32-.33.55-.71.83-1.07a72.29,72.29,0,0,0,8.67,5.3,91.85,91.85,0,0,0,27.51,9.65,96.69,96.69,0,0,0,38-.73,97.07,97.07,0,0,0,69.9-62.15,102.7,102.7,0,0,0,5.55-27A106.61,106.61,0,0,0,293.52,158Zm-12.16,52.31a90.55,90.55,0,0,1-25,39.88,90.73,90.73,0,0,1-73.64,23.24,89.89,89.89,0,0,1-27.36-8.08,72,72,0,0,1-8.74-4.75l.19-.19,0-.05a14.79,14.79,0,0,0-2-19.07L140,236.69c-.71-.71-1.8-1.63-2.46-2.42l-2.13-2.53c-.77-.94-1.65-1.8-2.53-3l-2.76-3.95a76.94,76.94,0,0,1-10.47-22.21A81.85,81.85,0,0,1,117,170.55a83.73,83.73,0,0,1,13.43-36c.9-1.48,2.09-2.77,3.13-4.2l1.61-2.1.81-1.06c.38-.41-.41.41-.28.27l.13-.14.26-.27.52-.55c2.76-2.84,5.74-6.25,8.23-8.1,4.92-4.59,11.74-8.81,18.47-12.16a87.88,87.88,0,0,1,22.3-7,91.84,91.84,0,0,1,24.16-.52,91.66,91.66,0,0,1,23.84,6.55,95.31,95.31,0,0,1,21.28,13.38c2.65,2.63,6.87,6.23,9.05,9.17a88.73,88.73,0,0,1,7.55,10,93.75,93.75,0,0,1,10.35,23.12,95.29,95.29,0,0,1,3.29,24.93A92.71,92.71,0,0,1,281.36,210.27Z" transform="translate(-27.61 -19.12)"/><path class="cls-3" d="M252.72,200.61V165.77a13.6,13.6,0,0,0-13.6-13.6h-15.3a13.6,13.6,0,0,0-13.6,13.6v34.84H175.39a13.6,13.6,0,0,0-13.6,13.6v15.3a13.6,13.6,0,0,0,13.6,13.6h34.84v29.76a89.94,89.94,0,0,0,9-2,92.94,92.94,0,0,0,33.47-17.54V243.1h10.46a90.28,90.28,0,0,0,18.18-32.83,76.48,76.48,0,0,0,2.3-9.66Z" transform="translate(-27.61 -19.12)"/><path class="cls-3" d="M382.3,109.35a47.14,47.14,0,0,1,16.12-16.12,75.51,75.51,0,0,1,22.28-9,108.58,108.58,0,0,1,24.81-2.84,131.94,131.94,0,0,1,25.91,2.53A105.32,105.32,0,0,1,494.18,91q10.11,4.58,16,11.22T516,116.46a20.82,20.82,0,0,1-5.21,14.38q-5.21,5.85-14.06,5.85a17.14,17.14,0,0,1-8.85-2.05,62.24,62.24,0,0,1-8.85-6.79,59.12,59.12,0,0,0-13-9.17q-6.33-3.16-17.07-3.16-12.64,0-19.59,3.48t-7,10.75q0,7.27,5.85,10.43t18.8,6l19.28,4.42a216.44,216.44,0,0,1,21.49,6.16,73.82,73.82,0,0,1,17.7,9A45.09,45.09,0,0,1,518.83,180a38.35,38.35,0,0,1,5.06,19.91,47.3,47.3,0,0,1-6,24,52.94,52.94,0,0,1-16.12,17.38,71.91,71.91,0,0,1-22.91,10.27,103.49,103.49,0,0,1-26.07,3.32,132.48,132.48,0,0,1-29.39-3.16,92.89,92.89,0,0,1-24.49-9q-10.59-5.84-16.59-13.27a24.91,24.91,0,0,1-6-16A20.39,20.39,0,0,1,381,199.74q4.74-5.53,13.91-5.53a17.53,17.53,0,0,1,9.8,2.69,68.87,68.87,0,0,1,10.11,8.69,72.78,72.78,0,0,0,15.49,12.64q7.58,4.43,20.54,4.42,12,0,19.44-4.74t7.43-12q0-7.58-5.37-10.75t-18.65-6.32l-2.53-.63L424,181.56q-23.07-5.69-35.4-16.43T376.3,132.9Q376.3,119.31,382.3,109.35Z" transform="translate(-27.61 -19.12)"/><path class="cls-3" d="M701.17,206.22a72.43,72.43,0,0,0,.95,13q.95,5.06,2.21,10.11a28.63,28.63,0,0,1,1.58,7.9,15.7,15.7,0,0,1-6.16,12.64,22.45,22.45,0,0,1-14.7,5.06q-13.91,0-20.23-7.43t-7-19.44q-13,14.22-28.44,20.54t-34.76,6.32a55.08,55.08,0,0,1-36.5-13.12q-15.64-13.11-15.64-34,0-13.9,4.9-23.54A40.31,40.31,0,0,1,561,168.77a71.22,71.22,0,0,1,20.23-9.17A155.82,155.82,0,0,1,607,154.7l28.13-3.16q9.79-1.26,14.85-4.58T655,134.48a15.41,15.41,0,0,0-8.22-14.22q-8.22-4.74-20.86-4.74-13,0-20.54,4.11A71.35,71.35,0,0,0,590.25,131a53,53,0,0,1-8.85,7.43,16.35,16.35,0,0,1-8.85,2.37q-8.53,0-14.06-5.21A16.55,16.55,0,0,1,553,123.1q0-6.95,4.9-14.38t14.38-13.59a82.93,82.93,0,0,1,23.23-10,115.87,115.87,0,0,1,30.81-3.79q34.76,0,54.83,11.69t20.07,35.71ZM655,173a21.92,21.92,0,0,1-8.06,4.42,96.26,96.26,0,0,1-11.54,2.84h-.32l-16.75,2.53q-15.17,2.21-22.44,7.43t-7.27,15.33q0,7.9,7,13.43t18.65,5.53q18.33,0,29.55-10T655,191Z" transform="translate(-27.61 -19.12)"/><path class="cls-3" d="M738.15,42.2q0-11.06,6.16-17.07t16.91-6q10.74,0,16.91,6t6.16,17.07V231.81q0,11.07-6.16,17.07t-16.91,6q-10.75,0-16.91-6t-6.16-17.07Z" transform="translate(-27.61 -19.12)"/><path class="cls-3" d="M974.54,231.81q0,10.75-5.21,16.91t-15.64,6.16q-10.43,0-15.64-6.16t-5.21-16.91v-6h-.63a77,77,0,0,1-24,21.49q-13.59,7.59-31.92,7.59a75.66,75.66,0,0,1-21.33-3,50.32,50.32,0,0,1-18.65-10.11,48.69,48.69,0,0,1-13.27-19q-4.9-11.85-4.9-28.6V104.45q0-10.43,5.21-16.75t17.86-6.32q12.64,0,17.86,6.32t5.21,16.75V185q0,14.54,7.27,23.23T893.32,217q13.27,0,24.18-10t10.9-26.39V104.45q0-10.43,5.21-16.75t17.86-6.32q12.64,0,17.86,6.32t5.21,16.75Z" transform="translate(-27.61 -19.12)"/><path class="cls-3" d="M1005.82,103.19q0-21.81,20.86-21.81t20.86,21.81v7.27h.63a42.5,42.5,0,0,1,18.49-21.65q12.8-7.42,30.18-7.43a71.93,71.93,0,0,1,27.81,5.37,64.71,64.71,0,0,1,23.07,16.43q10.11,11.07,15.8,27.65t5.69,38.4a116.33,116.33,0,0,1-4.42,32.39A85.8,85.8,0,0,1,1151.51,229a63.57,63.57,0,0,1-22.28,19q-13.44,6.95-31.13,7-15.81,0-27.5-6a42.15,42.15,0,0,1-18-17.38H1052v61.63q0,11.06-6.16,17.07t-16.91,6q-10.75,0-16.91-6t-6.16-17.07Zm107.77,28.76q-9.48-14.22-27.18-14.54-19,0-28,14.22t-9,36a89.55,89.55,0,0,0,1.9,18.49,53.22,53.22,0,0,0,6.32,16.43,34.48,34.48,0,0,0,11.54,11.85q7.11,4.43,17.22,4.42,10.43,0,17.7-4.74a33.65,33.65,0,0,0,11.38-12.33,57.69,57.69,0,0,0,5.85-16.43,91.78,91.78,0,0,0,1.74-17.7Q1123.07,146.17,1113.59,131.95Z" transform="translate(-27.61 -19.12)"/><path class="cls-3" d="M1196.07,102.87q0-10.11,5.85-15.8t15-5.69q9.16,0,15,5.69t5.85,15.8v17.7h.63q4.74-17.07,13.75-28.13t24.49-11.06q11.06,0,18.17,6.32a20.62,20.62,0,0,1,7.11,16.12q0,12-6.48,17.54t-16.28,5.53H1271q-14.54,0-21.65,11.69t-7.11,39.5v53.73q0,10.43-5.21,16.75t-17.86,6.32q-12.64,0-17.86-6.32t-5.21-16.75Z" transform="translate(-27.61 -19.12)"/><path class="cls-3" d="M1311.58,133.69a78.6,78.6,0,0,1,16.28-27.34q23.07-25,63.52-25t63.52,25a78.73,78.73,0,0,1,16.28,27.34,102.3,102.3,0,0,1,5.53,34.29,115.53,115.53,0,0,1-4.74,33.66,76.88,76.88,0,0,1-14.7,27.49q-10,11.85-26.55,18.8t-39.35,7q-22.75,0-39.19-6.79t-26.55-18.8a77.09,77.09,0,0,1-14.85-27.65,115.53,115.53,0,0,1-4.74-33.66A102.2,102.2,0,0,1,1311.58,133.69ZM1362,205.74q9.79,15,29.39,15t29.39-15q9.79-15,9.8-37.77,0-23.7-10-38.08t-29.23-14.38q-19.28,0-29.23,14.38t-10,38.08Q1352.19,190.73,1362,205.74Z" transform="translate(-27.61 -19.12)"/></g></g></svg>